<svg xmlns="http://www.w3.org/2000/svg" width="800" height="600" viewBox="0 0 800 600">
  <defs>
    <radialGradient id="vg1" cx="50%" cy="40%" r="60%">
      <stop offset="0%" stop-color="#FF48B0" stop-opacity="0.2"/>
      <stop offset="50%" stop-color="#FF48B0" stop-opacity="0.05"/>
      <stop offset="100%" stop-color="#0D0D0D" stop-opacity="0"/>
    </radialGradient>
    <radialGradient id="vg2" cx="30%" cy="70%" r="40%">
      <stop offset="0%" stop-color="#0055FF" stop-opacity="0.15"/>
      <stop offset="100%" stop-color="#0055FF" stop-opacity="0"/>
    </radialGradient>
    <radialGradient id="vg3" cx="80%" cy="30%" r="35%">
      <stop offset="0%" stop-color="#FFD200" stop-opacity="0.1"/>
      <stop offset="100%" stop-color="#FFD200" stop-opacity="0"/>
    </radialGradient>
  </defs>
  <rect width="800" height="600" fill="#0D0D0D"/>
  <rect width="800" height="600" fill="url(#vg1)"/>
  <rect width="800" height="600" fill="url(#vg2)"/>
  <rect width="800" height="600" fill="url(#vg3)"/>

  <!-- Sound wave visualization -->
  <g transform="translate(400,250)" stroke="#FF48B0" fill="none" opacity="0.6">
    <path d="M-300,0 Q-280,-40 -260,0 Q-240,50 -220,0 Q-200,-60 -180,0 Q-160,30 -140,0 Q-120,-70 -100,0 Q-80,45 -60,0 Q-40,-80 -20,0 Q0,90 20,0 Q40,-85 60,0 Q80,50 100,0 Q120,-65 140,0 Q160,35 180,0 Q200,-55 220,0 Q240,40 260,0 Q280,-30 300,0" stroke-width="2">
      <animate attributeName="d" dur="4s" repeatCount="indefinite" values="
        M-300,0 Q-280,-40 -260,0 Q-240,50 -220,0 Q-200,-60 -180,0 Q-160,30 -140,0 Q-120,-70 -100,0 Q-80,45 -60,0 Q-40,-80 -20,0 Q0,90 20,0 Q40,-85 60,0 Q80,50 100,0 Q120,-65 140,0 Q160,35 180,0 Q200,-55 220,0 Q240,40 260,0 Q280,-30 300,0;
        M-300,0 Q-280,50 -260,0 Q-240,-40 -220,0 Q-200,70 -180,0 Q-160,-35 -140,0 Q-120,60 -100,0 Q-80,-50 -60,0 Q-40,75 -20,0 Q0,-80 20,0 Q40,70 60,0 Q80,-55 100,0 Q120,45 140,0 Q160,-40 180,0 Q200,50 220,0 Q240,-35 260,0 Q280,45 300,0;
        M-300,0 Q-280,-40 -260,0 Q-240,50 -220,0 Q-200,-60 -180,0 Q-160,30 -140,0 Q-120,-70 -100,0 Q-80,45 -60,0 Q-40,-80 -20,0 Q0,90 20,0 Q40,-85 60,0 Q80,50 100,0 Q120,-65 140,0 Q160,35 180,0 Q200,-55 220,0 Q240,40 260,0 Q280,-30 300,0
      "/>
    </path>
    <path d="M-300,0 Q-280,-20 -260,0 Q-240,25 -220,0 Q-200,-30 -180,0 Q-160,15 -140,0 Q-120,-35 -100,0 Q-80,22 -60,0 Q-40,-40 -20,0 Q0,45 20,0 Q40,-42 60,0 Q80,25 100,0 Q120,-32 140,0 Q160,17 180,0 Q200,-27 220,0 Q240,20 260,0 Q280,-15 300,0" stroke-width="1" opacity="0.4">
      <animate attributeName="d" dur="3s" repeatCount="indefinite" values="
        M-300,0 Q-280,-20 -260,0 Q-240,25 -220,0 Q-200,-30 -180,0 Q-160,15 -140,0 Q-120,-35 -100,0 Q-80,22 -60,0 Q-40,-40 -20,0 Q0,45 20,0 Q40,-42 60,0 Q80,25 100,0 Q120,-32 140,0 Q160,17 180,0 Q200,-27 220,0 Q240,20 260,0 Q280,-15 300,0;
        M-300,0 Q-280,25 -260,0 Q-240,-20 -220,0 Q-200,35 -180,0 Q-160,-18 -140,0 Q-120,30 -100,0 Q-80,-25 -60,0 Q-40,38 -20,0 Q0,-40 20,0 Q40,35 60,0 Q80,-28 100,0 Q120,22 140,0 Q160,-20 180,0 Q200,25 220,0 Q240,-18 260,0 Q280,22 300,0;
        M-300,0 Q-280,-20 -260,0 Q-240,25 -220,0 Q-200,-30 -180,0 Q-160,15 -140,0 Q-120,-35 -100,0 Q-80,22 -60,0 Q-40,-40 -20,0 Q0,45 20,0 Q40,-42 60,0 Q80,25 100,0 Q120,-32 140,0 Q160,17 180,0 Q200,-27 220,0 Q240,20 260,0 Q280,-15 300,0
      "/>
    </path>
  </g>

  <!-- Crowd silhouettes at bottom -->
  <g fill="#F4F1EA" opacity="0.08">
    <ellipse cx="100" cy="530" rx="30" ry="60"/><ellipse cx="160" cy="540" rx="25" ry="50"/>
    <ellipse cx="220" cy="525" rx="28" ry="65"/><ellipse cx="290" cy="535" rx="32" ry="55"/>
    <ellipse cx="360" cy="530" rx="26" ry="60"/><ellipse cx="430" cy="540" rx="30" ry="50"/>
    <ellipse cx="500" cy="528" rx="28" ry="62"/><ellipse cx="570" cy="538" rx="25" ry="52"/>
    <ellipse cx="640" cy="530" rx="30" ry="60"/><ellipse cx="710" cy="535" rx="28" ry="55"/>
  </g>

  <!-- Stage lights -->
  <g opacity="0.08">
    <polygon points="300,0 340,0 500,300 100,300" fill="#FF48B0"/>
    <polygon points="460,0 500,0 650,300 350,300" fill="#0055FF"/>
    <polygon points="600,0 640,0 750,250 500,250" fill="#FFD200"/>
  </g>

  <!-- Floating emoji/icon elements -->
  <g font-size="24" opacity="0.15">
    <text x="150" y="150">~</text>
    <text x="650" y="180">~</text>
    <text x="350" y="450">~</text>
    <text x="550" y="400">~</text>
  </g>

  <text x="50" y="580" font-family="monospace" font-size="9" fill="#F4F1EA" opacity="0.2" letter-spacing="4">SCENE 004 — VIBE CURATORS SEOUL</text>
</svg>
